<mxfile host="app.diagrams.net" modified="2023-07-10T09:50:15.030Z" agent="Mozilla/5.0 (Windows NT 10.0; Win64; x64) AppleWebKit/537.36 (KHTML, like Gecko) Chrome/114.0.0.0 Safari/537.36" etag="2BONwMr8NQGm0nMoLSSM" version="21.6.1" type="device" pages="2">
  <diagram name="Sub Module" id="bRLkZOCU7WqL4WwSWCJH">
    <mxGraphModel dx="2100" dy="1116" grid="1" gridSize="10" guides="1" tooltips="1" connect="1" arrows="1" fold="1" page="1" pageScale="1" pageWidth="1654" pageHeight="1169" math="0" shadow="0">
      <root>
        <mxCell id="0" />
        <mxCell id="1" parent="0" />
        <mxCell id="mOdfgOqgp9eWF1x82Zy4-18" value="" style="rounded=1;whiteSpace=wrap;html=1;strokeWidth=3;fillColor=none;" vertex="1" parent="1">
          <mxGeometry x="280" y="250" width="1190" height="660" as="geometry" />
        </mxCell>
        <mxCell id="mOdfgOqgp9eWF1x82Zy4-3" value="" style="rounded=0;whiteSpace=wrap;html=1;strokeWidth=3;fillColor=none;" vertex="1" parent="1">
          <mxGeometry x="420" y="320" width="410" height="500" as="geometry" />
        </mxCell>
        <mxCell id="mOdfgOqgp9eWF1x82Zy4-4" value="&lt;font size=&quot;1&quot; style=&quot;&quot;&gt;&lt;b style=&quot;font-size: 23px;&quot;&gt;NUTTX&lt;/b&gt;&lt;/font&gt;" style="rounded=0;whiteSpace=wrap;html=1;" vertex="1" parent="1">
          <mxGeometry x="470" y="670" width="310" height="70" as="geometry" />
        </mxCell>
        <mxCell id="mOdfgOqgp9eWF1x82Zy4-5" value="&lt;font style=&quot;font-size: 20px;&quot;&gt;&lt;b&gt;PX4&lt;/b&gt;&lt;/font&gt;" style="rounded=0;whiteSpace=wrap;html=1;" vertex="1" parent="1">
          <mxGeometry x="470" y="520" width="310" height="70" as="geometry" />
        </mxCell>
        <mxCell id="mOdfgOqgp9eWF1x82Zy4-7" value="&lt;font style=&quot;font-size: 20px;&quot;&gt;&lt;b&gt;Test Flows&lt;/b&gt;&lt;/font&gt;" style="rounded=0;whiteSpace=wrap;html=1;" vertex="1" parent="1">
          <mxGeometry x="1070" y="510" width="220" height="230" as="geometry" />
        </mxCell>
        <mxCell id="mOdfgOqgp9eWF1x82Zy4-8" value="&lt;span style=&quot;font-size: 20px;&quot;&gt;&lt;b&gt;Test - PAL&lt;/b&gt;&lt;/span&gt;" style="rounded=0;whiteSpace=wrap;html=1;" vertex="1" parent="1">
          <mxGeometry x="870" y="510" width="200" height="230" as="geometry" />
        </mxCell>
        <mxCell id="mOdfgOqgp9eWF1x82Zy4-9" value="" style="shape=flexArrow;endArrow=classic;startArrow=classic;html=1;rounded=0;" edge="1" parent="1">
          <mxGeometry width="100" height="100" relative="1" as="geometry">
            <mxPoint x="634.17" y="670" as="sourcePoint" />
            <mxPoint x="634.17" y="590" as="targetPoint" />
          </mxGeometry>
        </mxCell>
        <mxCell id="mOdfgOqgp9eWF1x82Zy4-10" value="&lt;font style=&quot;font-size: 20px;&quot;&gt;&lt;b&gt;PX4 - Board Config&lt;/b&gt;&lt;/font&gt;" style="rounded=0;whiteSpace=wrap;html=1;" vertex="1" parent="1">
          <mxGeometry x="480" y="370" width="310" height="70" as="geometry" />
        </mxCell>
        <mxCell id="mOdfgOqgp9eWF1x82Zy4-11" value="" style="shape=flexArrow;endArrow=classic;startArrow=classic;html=1;rounded=0;" edge="1" parent="1">
          <mxGeometry width="100" height="100" relative="1" as="geometry">
            <mxPoint x="634.17" y="520" as="sourcePoint" />
            <mxPoint x="634.17" y="440" as="targetPoint" />
          </mxGeometry>
        </mxCell>
        <mxCell id="mOdfgOqgp9eWF1x82Zy4-12" value="" style="shape=flexArrow;endArrow=classic;startArrow=classic;html=1;rounded=0;" edge="1" parent="1">
          <mxGeometry width="100" height="100" relative="1" as="geometry">
            <mxPoint x="870" y="704.17" as="sourcePoint" />
            <mxPoint x="780" y="704.17" as="targetPoint" />
          </mxGeometry>
        </mxCell>
        <mxCell id="mOdfgOqgp9eWF1x82Zy4-14" value="" style="shape=flexArrow;endArrow=classic;startArrow=classic;html=1;rounded=0;" edge="1" parent="1">
          <mxGeometry width="100" height="100" relative="1" as="geometry">
            <mxPoint x="870" y="554.17" as="sourcePoint" />
            <mxPoint x="780" y="554.17" as="targetPoint" />
          </mxGeometry>
        </mxCell>
        <mxCell id="mOdfgOqgp9eWF1x82Zy4-15" value="&lt;span style=&quot;font-size: 20px;&quot;&gt;&lt;b&gt;Test Board Configs&lt;/b&gt;&lt;/span&gt;" style="rounded=0;whiteSpace=wrap;html=1;" vertex="1" parent="1">
          <mxGeometry x="870" y="440" width="420" height="70" as="geometry" />
        </mxCell>
        <mxCell id="mOdfgOqgp9eWF1x82Zy4-17" value="&lt;font style=&quot;font-size: 23px;&quot;&gt;&lt;b&gt;Sub Module&lt;/b&gt;&lt;/font&gt;" style="text;html=1;strokeColor=none;fillColor=none;align=center;verticalAlign=middle;whiteSpace=wrap;rounded=0;" vertex="1" parent="1">
          <mxGeometry x="515" y="770" width="220" height="30" as="geometry" />
        </mxCell>
        <mxCell id="mOdfgOqgp9eWF1x82Zy4-19" value="&lt;span style=&quot;font-size: 23px;&quot;&gt;&lt;b&gt;Root Repo&lt;/b&gt;&lt;/span&gt;" style="text;html=1;strokeColor=none;fillColor=none;align=center;verticalAlign=middle;whiteSpace=wrap;rounded=0;" vertex="1" parent="1">
          <mxGeometry x="1210" y="830" width="220" height="30" as="geometry" />
        </mxCell>
      </root>
    </mxGraphModel>
  </diagram>
  <diagram id="id2UNyeoNRwNDkABzY2k" name="Work Flow">
    <mxGraphModel dx="1235" dy="656" grid="1" gridSize="10" guides="1" tooltips="1" connect="1" arrows="1" fold="1" page="1" pageScale="1" pageWidth="1654" pageHeight="1169" math="0" shadow="0">
      <root>
        <mxCell id="0" />
        <mxCell id="1" parent="0" />
        <mxCell id="AvOUvb8mX-L0vvMGeV2P-102" value="" style="whiteSpace=wrap;html=1;aspect=fixed;dashed=1;fillColor=none;" vertex="1" parent="1">
          <mxGeometry x="700" y="140" width="140" height="140" as="geometry" />
        </mxCell>
        <mxCell id="AvOUvb8mX-L0vvMGeV2P-9" style="edgeStyle=orthogonalEdgeStyle;rounded=0;orthogonalLoop=1;jettySize=auto;html=1;entryX=0;entryY=0.5;entryDx=0;entryDy=0;" edge="1" parent="1" source="AvOUvb8mX-L0vvMGeV2P-4" target="AvOUvb8mX-L0vvMGeV2P-6">
          <mxGeometry relative="1" as="geometry" />
        </mxCell>
        <mxCell id="AvOUvb8mX-L0vvMGeV2P-4" value="PX4 Fork" style="ellipse;whiteSpace=wrap;html=1;aspect=fixed;" vertex="1" parent="1">
          <mxGeometry x="230" y="300" width="50" height="50" as="geometry" />
        </mxCell>
        <mxCell id="AvOUvb8mX-L0vvMGeV2P-10" style="edgeStyle=orthogonalEdgeStyle;rounded=0;orthogonalLoop=1;jettySize=auto;html=1;entryX=0;entryY=0.5;entryDx=0;entryDy=0;" edge="1" parent="1" source="AvOUvb8mX-L0vvMGeV2P-6" target="AvOUvb8mX-L0vvMGeV2P-7">
          <mxGeometry relative="1" as="geometry" />
        </mxCell>
        <mxCell id="AvOUvb8mX-L0vvMGeV2P-73" style="edgeStyle=orthogonalEdgeStyle;rounded=0;orthogonalLoop=1;jettySize=auto;html=1;entryX=0.5;entryY=0;entryDx=0;entryDy=0;" edge="1" parent="1" source="AvOUvb8mX-L0vvMGeV2P-6" target="AvOUvb8mX-L0vvMGeV2P-38">
          <mxGeometry relative="1" as="geometry" />
        </mxCell>
        <mxCell id="AvOUvb8mX-L0vvMGeV2P-75" style="edgeStyle=orthogonalEdgeStyle;rounded=0;orthogonalLoop=1;jettySize=auto;html=1;entryX=0.5;entryY=1;entryDx=0;entryDy=0;" edge="1" parent="1" source="AvOUvb8mX-L0vvMGeV2P-6" target="AvOUvb8mX-L0vvMGeV2P-74">
          <mxGeometry relative="1" as="geometry" />
        </mxCell>
        <mxCell id="AvOUvb8mX-L0vvMGeV2P-6" value="XC1" style="ellipse;whiteSpace=wrap;html=1;aspect=fixed;" vertex="1" parent="1">
          <mxGeometry x="330" y="300" width="50" height="50" as="geometry" />
        </mxCell>
        <mxCell id="AvOUvb8mX-L0vvMGeV2P-11" style="edgeStyle=orthogonalEdgeStyle;rounded=0;orthogonalLoop=1;jettySize=auto;html=1;entryX=0;entryY=0.5;entryDx=0;entryDy=0;" edge="1" parent="1" source="AvOUvb8mX-L0vvMGeV2P-7" target="AvOUvb8mX-L0vvMGeV2P-8">
          <mxGeometry relative="1" as="geometry" />
        </mxCell>
        <mxCell id="AvOUvb8mX-L0vvMGeV2P-7" value="XC2" style="ellipse;whiteSpace=wrap;html=1;aspect=fixed;" vertex="1" parent="1">
          <mxGeometry x="410" y="300" width="50" height="50" as="geometry" />
        </mxCell>
        <mxCell id="AvOUvb8mX-L0vvMGeV2P-89" value="" style="edgeStyle=orthogonalEdgeStyle;rounded=0;orthogonalLoop=1;jettySize=auto;html=1;" edge="1" parent="1" source="AvOUvb8mX-L0vvMGeV2P-8" target="AvOUvb8mX-L0vvMGeV2P-84">
          <mxGeometry relative="1" as="geometry" />
        </mxCell>
        <mxCell id="AvOUvb8mX-L0vvMGeV2P-94" style="edgeStyle=orthogonalEdgeStyle;rounded=0;orthogonalLoop=1;jettySize=auto;html=1;entryX=0.5;entryY=0;entryDx=0;entryDy=0;" edge="1" parent="1" source="AvOUvb8mX-L0vvMGeV2P-8" target="AvOUvb8mX-L0vvMGeV2P-39">
          <mxGeometry relative="1" as="geometry">
            <mxPoint x="530" y="430" as="targetPoint" />
          </mxGeometry>
        </mxCell>
        <mxCell id="AvOUvb8mX-L0vvMGeV2P-8" value="XC3" style="ellipse;whiteSpace=wrap;html=1;aspect=fixed;" vertex="1" parent="1">
          <mxGeometry x="490" y="300" width="50" height="50" as="geometry" />
        </mxCell>
        <mxCell id="AvOUvb8mX-L0vvMGeV2P-13" value="Main" style="ellipse;whiteSpace=wrap;html=1;aspect=fixed;" vertex="1" parent="1">
          <mxGeometry x="910" y="300" width="50" height="50" as="geometry" />
        </mxCell>
        <mxCell id="AvOUvb8mX-L0vvMGeV2P-19" value="&lt;a style=&quot;box-sizing: border-box; background-color: transparent; text-decoration-line: none;&quot; href=&quot;https://github.com/g-rahul/ST-PX4-Autopilot-Fork&quot; class=&quot;color-fg-default&quot; data-turbo-frame=&quot;repo-content-turbo-frame&quot; data-pjax=&quot;#repo-content-pjax-container&quot;&gt;&lt;b&gt;ST-PX4-Autopilot-Fork&lt;/b&gt;&lt;/a&gt;&lt;span style=&quot;box-sizing: border-box; color: rgb(31, 35, 40); font-family: -apple-system, BlinkMacSystemFont, &amp;quot;Segoe UI&amp;quot;, &amp;quot;Noto Sans&amp;quot;, Helvetica, Arial, sans-serif, &amp;quot;Apple Color Emoji&amp;quot;, &amp;quot;Segoe UI Emoji&amp;quot;; font-size: 20px; text-align: start; background-color: rgb(255, 255, 255);&quot;&gt;&lt;/span&gt;" style="text;html=1;strokeColor=none;fillColor=none;align=center;verticalAlign=middle;whiteSpace=wrap;rounded=0;" vertex="1" parent="1">
          <mxGeometry x="60" y="310" width="160" height="30" as="geometry" />
        </mxCell>
        <mxCell id="AvOUvb8mX-L0vvMGeV2P-20" value="&lt;a style=&quot;box-sizing: border-box; background-color: transparent; text-decoration-line: none;&quot; href=&quot;https://github.com/g-rahul/ST-SRC-Autopilot&quot; class=&quot;color-fg-default&quot; data-turbo-frame=&quot;repo-content-turbo-frame&quot; data-pjax=&quot;#repo-content-pjax-container&quot;&gt;ST-SRC-Autopilot&lt;/a&gt;&lt;span style=&quot;box-sizing: border-box; color: rgb(31, 35, 40); font-family: -apple-system, BlinkMacSystemFont, &amp;quot;Segoe UI&amp;quot;, &amp;quot;Noto Sans&amp;quot;, Helvetica, Arial, sans-serif, &amp;quot;Apple Color Emoji&amp;quot;, &amp;quot;Segoe UI Emoji&amp;quot;; font-size: 20px; text-align: start; background-color: rgb(255, 255, 255);&quot;&gt;&lt;/span&gt;" style="text;html=1;strokeColor=none;fillColor=none;align=center;verticalAlign=middle;whiteSpace=wrap;rounded=0;" vertex="1" parent="1">
          <mxGeometry x="562.5" y="815" width="120" height="30" as="geometry" />
        </mxCell>
        <mxCell id="AvOUvb8mX-L0vvMGeV2P-30" value="" style="edgeStyle=orthogonalEdgeStyle;rounded=0;orthogonalLoop=1;jettySize=auto;html=1;" edge="1" parent="1" source="AvOUvb8mX-L0vvMGeV2P-22" target="AvOUvb8mX-L0vvMGeV2P-24">
          <mxGeometry relative="1" as="geometry" />
        </mxCell>
        <mxCell id="AvOUvb8mX-L0vvMGeV2P-22" value="PX4 Main" style="ellipse;whiteSpace=wrap;html=1;aspect=fixed;" vertex="1" parent="1">
          <mxGeometry x="10" y="50" width="50" height="50" as="geometry" />
        </mxCell>
        <mxCell id="AvOUvb8mX-L0vvMGeV2P-23" value="PX4 Main" style="ellipse;whiteSpace=wrap;html=1;aspect=fixed;" vertex="1" parent="1">
          <mxGeometry x="80" y="50" width="50" height="50" as="geometry" />
        </mxCell>
        <mxCell id="AvOUvb8mX-L0vvMGeV2P-31" value="" style="edgeStyle=orthogonalEdgeStyle;rounded=0;orthogonalLoop=1;jettySize=auto;html=1;" edge="1" parent="1" source="AvOUvb8mX-L0vvMGeV2P-24" target="AvOUvb8mX-L0vvMGeV2P-26">
          <mxGeometry relative="1" as="geometry" />
        </mxCell>
        <mxCell id="AvOUvb8mX-L0vvMGeV2P-24" value="PX4 Main" style="ellipse;whiteSpace=wrap;html=1;aspect=fixed;" vertex="1" parent="1">
          <mxGeometry x="155" y="50" width="50" height="50" as="geometry" />
        </mxCell>
        <mxCell id="AvOUvb8mX-L0vvMGeV2P-29" style="edgeStyle=orthogonalEdgeStyle;rounded=0;orthogonalLoop=1;jettySize=auto;html=1;entryX=0.5;entryY=0;entryDx=0;entryDy=0;" edge="1" parent="1" source="AvOUvb8mX-L0vvMGeV2P-25" target="AvOUvb8mX-L0vvMGeV2P-4">
          <mxGeometry relative="1" as="geometry" />
        </mxCell>
        <mxCell id="AvOUvb8mX-L0vvMGeV2P-37" value="Sync Fork" style="edgeLabel;html=1;align=center;verticalAlign=middle;resizable=0;points=[];" vertex="1" connectable="0" parent="AvOUvb8mX-L0vvMGeV2P-29">
          <mxGeometry x="-0.364" y="-2" relative="1" as="geometry">
            <mxPoint as="offset" />
          </mxGeometry>
        </mxCell>
        <mxCell id="AvOUvb8mX-L0vvMGeV2P-25" value="PX4 Main" style="ellipse;whiteSpace=wrap;html=1;aspect=fixed;" vertex="1" parent="1">
          <mxGeometry x="230" y="50" width="50" height="50" as="geometry" />
        </mxCell>
        <mxCell id="AvOUvb8mX-L0vvMGeV2P-32" value="" style="edgeStyle=orthogonalEdgeStyle;rounded=0;orthogonalLoop=1;jettySize=auto;html=1;" edge="1" parent="1" source="AvOUvb8mX-L0vvMGeV2P-26" target="AvOUvb8mX-L0vvMGeV2P-28">
          <mxGeometry relative="1" as="geometry" />
        </mxCell>
        <mxCell id="AvOUvb8mX-L0vvMGeV2P-26" value="PX4 Main" style="ellipse;whiteSpace=wrap;html=1;aspect=fixed;" vertex="1" parent="1">
          <mxGeometry x="300" y="50" width="50" height="50" as="geometry" />
        </mxCell>
        <mxCell id="AvOUvb8mX-L0vvMGeV2P-27" value="PX4 Main" style="ellipse;whiteSpace=wrap;html=1;aspect=fixed;" vertex="1" parent="1">
          <mxGeometry x="380" y="50" width="50" height="50" as="geometry" />
        </mxCell>
        <mxCell id="AvOUvb8mX-L0vvMGeV2P-33" style="edgeStyle=orthogonalEdgeStyle;rounded=0;orthogonalLoop=1;jettySize=auto;html=1;" edge="1" parent="1" source="AvOUvb8mX-L0vvMGeV2P-28">
          <mxGeometry relative="1" as="geometry">
            <mxPoint x="670" y="75" as="targetPoint" />
          </mxGeometry>
        </mxCell>
        <mxCell id="AvOUvb8mX-L0vvMGeV2P-35" style="edgeStyle=orthogonalEdgeStyle;rounded=0;orthogonalLoop=1;jettySize=auto;html=1;entryX=0.5;entryY=0;entryDx=0;entryDy=0;" edge="1" parent="1" source="AvOUvb8mX-L0vvMGeV2P-28" target="AvOUvb8mX-L0vvMGeV2P-8">
          <mxGeometry relative="1" as="geometry" />
        </mxCell>
        <mxCell id="AvOUvb8mX-L0vvMGeV2P-36" value="Sync Fork" style="edgeLabel;html=1;align=center;verticalAlign=middle;resizable=0;points=[];" vertex="1" connectable="0" parent="AvOUvb8mX-L0vvMGeV2P-35">
          <mxGeometry x="-0.264" y="-2" relative="1" as="geometry">
            <mxPoint x="2" as="offset" />
          </mxGeometry>
        </mxCell>
        <mxCell id="AvOUvb8mX-L0vvMGeV2P-28" value="PX4 Main" style="ellipse;whiteSpace=wrap;html=1;aspect=fixed;" vertex="1" parent="1">
          <mxGeometry x="490" y="50" width="50" height="50" as="geometry" />
        </mxCell>
        <mxCell id="AvOUvb8mX-L0vvMGeV2P-34" value="Head" style="ellipse;whiteSpace=wrap;html=1;aspect=fixed;" vertex="1" parent="1">
          <mxGeometry x="670" y="50" width="50" height="50" as="geometry" />
        </mxCell>
        <mxCell id="AvOUvb8mX-L0vvMGeV2P-71" value="" style="edgeStyle=orthogonalEdgeStyle;rounded=0;orthogonalLoop=1;jettySize=auto;html=1;" edge="1" parent="1" source="AvOUvb8mX-L0vvMGeV2P-38" target="AvOUvb8mX-L0vvMGeV2P-68">
          <mxGeometry relative="1" as="geometry" />
        </mxCell>
        <mxCell id="AvOUvb8mX-L0vvMGeV2P-38" value="B1" style="ellipse;whiteSpace=wrap;html=1;aspect=fixed;" vertex="1" parent="1">
          <mxGeometry x="330" y="490" width="50" height="50" as="geometry" />
        </mxCell>
        <mxCell id="AvOUvb8mX-L0vvMGeV2P-111" value="" style="edgeStyle=orthogonalEdgeStyle;rounded=0;orthogonalLoop=1;jettySize=auto;html=1;" edge="1" parent="1" source="AvOUvb8mX-L0vvMGeV2P-39" target="AvOUvb8mX-L0vvMGeV2P-104">
          <mxGeometry relative="1" as="geometry" />
        </mxCell>
        <mxCell id="AvOUvb8mX-L0vvMGeV2P-39" value="B2" style="ellipse;whiteSpace=wrap;html=1;aspect=fixed;" vertex="1" parent="1">
          <mxGeometry x="490" y="585" width="50" height="50" as="geometry" />
        </mxCell>
        <mxCell id="AvOUvb8mX-L0vvMGeV2P-43" value="BMain" style="ellipse;whiteSpace=wrap;html=1;aspect=fixed;" vertex="1" parent="1">
          <mxGeometry x="777.5" y="585" width="50" height="50" as="geometry" />
        </mxCell>
        <mxCell id="AvOUvb8mX-L0vvMGeV2P-90" style="edgeStyle=orthogonalEdgeStyle;rounded=0;orthogonalLoop=1;jettySize=auto;html=1;entryX=0.5;entryY=1;entryDx=0;entryDy=0;" edge="1" parent="1" source="AvOUvb8mX-L0vvMGeV2P-44" target="AvOUvb8mX-L0vvMGeV2P-86">
          <mxGeometry relative="1" as="geometry" />
        </mxCell>
        <mxCell id="AvOUvb8mX-L0vvMGeV2P-44" value="Finish" style="ellipse;whiteSpace=wrap;html=1;aspect=fixed;" vertex="1" parent="1">
          <mxGeometry x="742.5" y="490" width="50" height="50" as="geometry" />
        </mxCell>
        <mxCell id="AvOUvb8mX-L0vvMGeV2P-98" style="edgeStyle=orthogonalEdgeStyle;rounded=0;orthogonalLoop=1;jettySize=auto;html=1;entryX=0.5;entryY=0;entryDx=0;entryDy=0;dashed=1;" edge="1" parent="1" source="AvOUvb8mX-L0vvMGeV2P-55" target="AvOUvb8mX-L0vvMGeV2P-86">
          <mxGeometry relative="1" as="geometry" />
        </mxCell>
        <mxCell id="AvOUvb8mX-L0vvMGeV2P-55" value="Test&lt;br&gt;Main" style="ellipse;whiteSpace=wrap;html=1;aspect=fixed;" vertex="1" parent="1">
          <mxGeometry x="732.5" y="190" width="70" height="70" as="geometry" />
        </mxCell>
        <mxCell id="AvOUvb8mX-L0vvMGeV2P-58" value="&lt;a data-pjax=&quot;#repo-content-pjax-container&quot; data-turbo-frame=&quot;repo-content-turbo-frame&quot; class=&quot;color-fg-default&quot; href=&quot;https://github.com/g-rahul/ST-SRC-Autopilot&quot; style=&quot;box-sizing: border-box; background-color: transparent; text-decoration-line: none;&quot;&gt;ST-SRC-Autopilot&lt;/a&gt;&lt;span style=&quot;box-sizing: border-box; color: rgb(31, 35, 40); font-family: -apple-system, BlinkMacSystemFont, &amp;quot;Segoe UI&amp;quot;, &amp;quot;Noto Sans&amp;quot;, Helvetica, Arial, sans-serif, &amp;quot;Apple Color Emoji&amp;quot;, &amp;quot;Segoe UI Emoji&amp;quot;; font-size: 20px; text-align: start; background-color: rgb(255, 255, 255);&quot;&gt;&lt;/span&gt;" style="text;html=1;strokeColor=none;fillColor=none;align=center;verticalAlign=middle;whiteSpace=wrap;rounded=0;" vertex="1" parent="1">
          <mxGeometry x="707.5" y="150" width="120" height="30" as="geometry" />
        </mxCell>
        <mxCell id="AvOUvb8mX-L0vvMGeV2P-66" value="Customer" style="text;html=1;strokeColor=none;fillColor=none;align=center;verticalAlign=middle;whiteSpace=wrap;rounded=0;" vertex="1" parent="1">
          <mxGeometry x="920" y="50" width="60" height="30" as="geometry" />
        </mxCell>
        <mxCell id="AvOUvb8mX-L0vvMGeV2P-78" value="" style="edgeStyle=orthogonalEdgeStyle;rounded=0;orthogonalLoop=1;jettySize=auto;html=1;" edge="1" parent="1" source="AvOUvb8mX-L0vvMGeV2P-68" target="AvOUvb8mX-L0vvMGeV2P-69">
          <mxGeometry relative="1" as="geometry" />
        </mxCell>
        <mxCell id="AvOUvb8mX-L0vvMGeV2P-68" value="X" style="ellipse;whiteSpace=wrap;html=1;aspect=fixed;" vertex="1" parent="1">
          <mxGeometry x="440" y="490" width="50" height="50" as="geometry" />
        </mxCell>
        <mxCell id="AvOUvb8mX-L0vvMGeV2P-79" style="edgeStyle=orthogonalEdgeStyle;rounded=0;orthogonalLoop=1;jettySize=auto;html=1;entryX=0;entryY=0.5;entryDx=0;entryDy=0;" edge="1" parent="1" source="AvOUvb8mX-L0vvMGeV2P-69" target="AvOUvb8mX-L0vvMGeV2P-44">
          <mxGeometry relative="1" as="geometry" />
        </mxCell>
        <mxCell id="AvOUvb8mX-L0vvMGeV2P-69" value="X" style="ellipse;whiteSpace=wrap;html=1;aspect=fixed;" vertex="1" parent="1">
          <mxGeometry x="597.5" y="490" width="50" height="50" as="geometry" />
        </mxCell>
        <mxCell id="AvOUvb8mX-L0vvMGeV2P-72" style="edgeStyle=orthogonalEdgeStyle;rounded=0;orthogonalLoop=1;jettySize=auto;html=1;exitX=0.5;exitY=1;exitDx=0;exitDy=0;" edge="1" parent="1" source="AvOUvb8mX-L0vvMGeV2P-6" target="AvOUvb8mX-L0vvMGeV2P-6">
          <mxGeometry relative="1" as="geometry" />
        </mxCell>
        <mxCell id="AvOUvb8mX-L0vvMGeV2P-76" style="edgeStyle=orthogonalEdgeStyle;rounded=0;orthogonalLoop=1;jettySize=auto;html=1;entryX=0.5;entryY=0;entryDx=0;entryDy=0;" edge="1" parent="1" source="AvOUvb8mX-L0vvMGeV2P-74" target="AvOUvb8mX-L0vvMGeV2P-7">
          <mxGeometry relative="1" as="geometry">
            <mxPoint x="430" y="270" as="targetPoint" />
          </mxGeometry>
        </mxCell>
        <mxCell id="AvOUvb8mX-L0vvMGeV2P-74" value="F1" style="ellipse;whiteSpace=wrap;html=1;aspect=fixed;" vertex="1" parent="1">
          <mxGeometry x="330" y="200" width="50" height="50" as="geometry" />
        </mxCell>
        <mxCell id="AvOUvb8mX-L0vvMGeV2P-83" value="X" style="ellipse;whiteSpace=wrap;html=1;aspect=fixed;" vertex="1" parent="1">
          <mxGeometry x="565" y="300" width="50" height="50" as="geometry" />
        </mxCell>
        <mxCell id="AvOUvb8mX-L0vvMGeV2P-91" value="" style="edgeStyle=orthogonalEdgeStyle;rounded=0;orthogonalLoop=1;jettySize=auto;html=1;" edge="1" parent="1" source="AvOUvb8mX-L0vvMGeV2P-84" target="AvOUvb8mX-L0vvMGeV2P-86">
          <mxGeometry relative="1" as="geometry" />
        </mxCell>
        <mxCell id="AvOUvb8mX-L0vvMGeV2P-84" value="X" style="ellipse;whiteSpace=wrap;html=1;aspect=fixed;" vertex="1" parent="1">
          <mxGeometry x="650" y="300" width="50" height="50" as="geometry" />
        </mxCell>
        <mxCell id="AvOUvb8mX-L0vvMGeV2P-85" style="edgeStyle=orthogonalEdgeStyle;rounded=0;orthogonalLoop=1;jettySize=auto;html=1;exitX=0.5;exitY=1;exitDx=0;exitDy=0;" edge="1" parent="1">
          <mxGeometry relative="1" as="geometry">
            <mxPoint x="575" y="290" as="sourcePoint" />
            <mxPoint x="575" y="290" as="targetPoint" />
          </mxGeometry>
        </mxCell>
        <mxCell id="AvOUvb8mX-L0vvMGeV2P-92" value="" style="edgeStyle=orthogonalEdgeStyle;rounded=0;orthogonalLoop=1;jettySize=auto;html=1;" edge="1" parent="1" source="AvOUvb8mX-L0vvMGeV2P-86" target="AvOUvb8mX-L0vvMGeV2P-87">
          <mxGeometry relative="1" as="geometry" />
        </mxCell>
        <mxCell id="AvOUvb8mX-L0vvMGeV2P-86" value="X" style="ellipse;whiteSpace=wrap;html=1;aspect=fixed;" vertex="1" parent="1">
          <mxGeometry x="742.5" y="300" width="50" height="50" as="geometry" />
        </mxCell>
        <mxCell id="AvOUvb8mX-L0vvMGeV2P-93" value="" style="edgeStyle=orthogonalEdgeStyle;rounded=0;orthogonalLoop=1;jettySize=auto;html=1;" edge="1" parent="1" source="AvOUvb8mX-L0vvMGeV2P-87" target="AvOUvb8mX-L0vvMGeV2P-13">
          <mxGeometry relative="1" as="geometry" />
        </mxCell>
        <mxCell id="AvOUvb8mX-L0vvMGeV2P-87" value="X" style="ellipse;whiteSpace=wrap;html=1;aspect=fixed;" vertex="1" parent="1">
          <mxGeometry x="822.5" y="300" width="50" height="50" as="geometry" />
        </mxCell>
        <mxCell id="AvOUvb8mX-L0vvMGeV2P-88" style="edgeStyle=orthogonalEdgeStyle;rounded=0;orthogonalLoop=1;jettySize=auto;html=1;exitX=0.5;exitY=1;exitDx=0;exitDy=0;" edge="1" parent="1">
          <mxGeometry relative="1" as="geometry">
            <mxPoint x="752.5" y="290" as="sourcePoint" />
            <mxPoint x="752.5" y="290" as="targetPoint" />
          </mxGeometry>
        </mxCell>
        <mxCell id="AvOUvb8mX-L0vvMGeV2P-103" value="" style="endArrow=none;dashed=1;html=1;rounded=0;" edge="1" parent="1">
          <mxGeometry width="50" height="50" relative="1" as="geometry">
            <mxPoint y="560" as="sourcePoint" />
            <mxPoint x="1655.6471162683824" y="560" as="targetPoint" />
          </mxGeometry>
        </mxCell>
        <mxCell id="AvOUvb8mX-L0vvMGeV2P-112" value="" style="edgeStyle=orthogonalEdgeStyle;rounded=0;orthogonalLoop=1;jettySize=auto;html=1;" edge="1" parent="1" source="AvOUvb8mX-L0vvMGeV2P-104" target="AvOUvb8mX-L0vvMGeV2P-105">
          <mxGeometry relative="1" as="geometry" />
        </mxCell>
        <mxCell id="AvOUvb8mX-L0vvMGeV2P-104" value="X" style="ellipse;whiteSpace=wrap;html=1;aspect=fixed;" vertex="1" parent="1">
          <mxGeometry x="597.5" y="585" width="50" height="50" as="geometry" />
        </mxCell>
        <mxCell id="AvOUvb8mX-L0vvMGeV2P-113" value="" style="edgeStyle=orthogonalEdgeStyle;rounded=0;orthogonalLoop=1;jettySize=auto;html=1;" edge="1" parent="1" source="AvOUvb8mX-L0vvMGeV2P-105" target="AvOUvb8mX-L0vvMGeV2P-43">
          <mxGeometry relative="1" as="geometry" />
        </mxCell>
        <mxCell id="AvOUvb8mX-L0vvMGeV2P-105" value="X" style="ellipse;whiteSpace=wrap;html=1;aspect=fixed;" vertex="1" parent="1">
          <mxGeometry x="692.5" y="585" width="50" height="50" as="geometry" />
        </mxCell>
        <mxCell id="AvOUvb8mX-L0vvMGeV2P-110" style="edgeStyle=orthogonalEdgeStyle;rounded=0;orthogonalLoop=1;jettySize=auto;html=1;entryX=0.5;entryY=1;entryDx=0;entryDy=0;dashed=1;" edge="1" parent="1" source="AvOUvb8mX-L0vvMGeV2P-106" target="AvOUvb8mX-L0vvMGeV2P-104">
          <mxGeometry relative="1" as="geometry" />
        </mxCell>
        <mxCell id="AvOUvb8mX-L0vvMGeV2P-114" style="edgeStyle=orthogonalEdgeStyle;rounded=0;orthogonalLoop=1;jettySize=auto;html=1;entryX=0.5;entryY=1;entryDx=0;entryDy=0;" edge="1" parent="1" source="AvOUvb8mX-L0vvMGeV2P-106" target="AvOUvb8mX-L0vvMGeV2P-43">
          <mxGeometry relative="1" as="geometry" />
        </mxCell>
        <mxCell id="AvOUvb8mX-L0vvMGeV2P-106" value="" style="whiteSpace=wrap;html=1;aspect=fixed;dashed=1;fillColor=none;" vertex="1" parent="1">
          <mxGeometry x="552.5" y="710" width="140" height="140" as="geometry" />
        </mxCell>
        <mxCell id="AvOUvb8mX-L0vvMGeV2P-107" value="Test B2" style="ellipse;whiteSpace=wrap;html=1;aspect=fixed;" vertex="1" parent="1">
          <mxGeometry x="587.5" y="745" width="70" height="70" as="geometry" />
        </mxCell>
      </root>
    </mxGraphModel>
  </diagram>
</mxfile>
